<?xml version="1.0" encoding="UTF-8"?>
<!DOCTYPE svg PUBLIC "-//W3C//DTD SVG 1.1//EN" "http://www.w3.org/Graphics/SVG/1.1/DTD/svg11.dtd">
<svg xmlns="http://www.w3.org/2000/svg" version="1.1" width="2921px" height="640px" style="shape-rendering:geometricPrecision; text-rendering:geometricPrecision; image-rendering:optimizeQuality; fill-rule:evenodd; clip-rule:evenodd" xmlns:xlink="http://www.w3.org/1999/xlink">
<g><path style="opacity:0.766" fill="#000000" d="M 354.5,67.5 C 359.58,68.5195 362.58,71.5195 363.5,76.5C 361.222,80.3205 359.055,84.3205 357,88.5C 353.966,100.968 350.466,113.302 346.5,125.5C 360.041,126.711 373.374,128.211 386.5,130C 389.726,133.807 390.226,137.973 388,142.5C 385.944,143.583 384.611,145.25 384,147.5C 383.333,151.167 383.333,154.833 384,158.5C 392.066,156.029 399.899,153.029 407.5,149.5C 409.591,141.057 412.758,133.057 417,125.5C 422.549,119.725 429.383,116.559 437.5,116C 423.803,110.149 410.136,104.316 396.5,98.5C 411.002,101.553 425.002,106.719 438.5,114C 452.769,122.606 466.769,131.606 480.5,141C 481.618,142.074 482.618,143.24 483.5,144.5C 485.555,142.445 487.888,140.779 490.5,139.5C 491.521,140.002 491.688,140.668 491,141.5C 489.442,143.359 487.609,144.859 485.5,146C 495.375,156.873 504.875,168.039 514,179.5C 520.895,192.956 528.561,205.956 537,218.5C 536.165,213.327 534.498,208.327 532,203.5C 526.754,193.339 521.254,183.339 515.5,173.5C 516.002,172.479 516.668,172.312 517.5,173C 525.745,184.65 532.578,197.15 538,210.5C 543.022,229.256 548.356,247.923 554,266.5C 567.347,270.218 570.181,277.718 562.5,289C 558.871,291.883 554.871,292.883 550.5,292C 554.711,310.154 555.378,328.487 552.5,347C 557.151,355.051 555.317,361.217 547,365.5C 546.296,367.278 545.796,369.112 545.5,371C 547.413,378.4 548.747,385.9 549.5,393.5C 550.396,392.494 551.062,392.494 551.5,393.5C 551.003,396.55 549.503,397.55 547,396.5C 545.768,391.279 545.101,385.946 545,380.5C 541.935,395.425 537.935,410.092 533,424.5C 532.252,426.332 531.252,427.999 530,429.5C 529.833,428.833 529.667,428.167 529.5,427.5C 530.986,423.566 531.82,419.566 532,415.5C 529.4,421.967 527.233,428.467 525.5,435C 527.282,437.243 527.782,439.743 527,442.5C 524.236,444.59 521.403,446.59 518.5,448.5C 501.333,476.502 478,497.669 448.5,512C 447.643,512.689 446.977,513.522 446.5,514.5C 447.509,516.185 447.009,517.518 445,518.5C 443.642,516.811 441.975,515.478 440,514.5C 439.885,512.893 440.385,511.393 441.5,510C 441,508.5 440.5,507 440,505.5C 426.483,514.341 411.983,521.174 396.5,526C 387.488,528.683 378.488,528.849 369.5,526.5C 364.891,527.875 362.058,530.875 361,535.5C 360.333,540.5 360.333,545.5 361,550.5C 366.539,553.88 367.872,558.547 365,564.5C 361.662,567.318 357.829,568.151 353.5,567C 351.667,566.5 350.5,565.333 350,563.5C 348.685,557.796 350.018,552.796 354,548.5C 354.667,546.167 354.667,543.833 354,541.5C 337.771,535.053 323.771,525.386 312,512.5C 297.676,519.491 284.01,527.491 271,536.5C 269.765,545.081 264.931,549.248 256.5,549C 249.704,545.578 247.871,540.411 251,533.5C 252.798,531.028 255.132,529.361 258,528.5C 259.145,525.568 259.978,522.568 260.5,519.5C 242.738,523.557 226.738,520.057 212.5,509C 207.278,504.281 202.612,499.115 198.5,493.5C 195.667,493.418 192.667,493.252 189.5,493C 183.912,487.933 184.245,483.267 190.5,479C 179.531,481.132 172.531,487.632 169.5,498.5C 170.363,502.293 171.363,505.959 172.5,509.5C 170.208,509.756 168.041,509.423 166,508.5C 165.762,505.692 166.096,503.026 167,500.5C 165.708,502.249 164.542,504.082 163.5,506C 162.668,506.688 162.002,506.521 161.5,505.5C 163.117,503.368 163.617,501.035 163,498.5C 159.796,495.631 156.963,492.465 154.5,489C 155.167,488.333 155.833,488.333 156.5,489C 159.576,491.62 162.742,494.12 166,496.5C 171.291,485.604 179.791,478.604 191.5,475.5C 191.883,463.673 193.049,452.006 195,440.5C 187.283,449.883 179.949,459.549 173,469.5C 168.709,475.31 163.209,479.31 156.5,481.5C 147.762,478.035 140.262,472.702 134,465.5C 119.916,446.836 109.082,426.336 101.5,404C 101.833,403.5 102.167,403 102.5,402.5C 109.95,419.4 118.45,435.733 128,451.5C 130.833,455 133.667,458.5 136.5,462C 139.062,463.141 141.728,463.974 144.5,464.5C 149.487,463.507 154.154,461.674 158.5,459C 170.95,450.218 183.117,441.051 195,431.5C 196.301,429.635 196.635,427.635 196,425.5C 193.119,420.442 188.953,417.109 183.5,415.5C 167.042,418.425 150.708,421.925 134.5,426C 131.864,429.309 129.197,432.642 126.5,436C 124.105,438.145 121.938,437.978 120,435.5C 118.274,426.558 121.94,421.558 131,420.5C 132.854,416.292 133.854,411.959 134,407.5C 130.922,409.955 127.756,412.289 124.5,414.5C 123.815,416.781 123.649,419.114 124,421.5C 122.938,420.101 121.605,419.101 120,418.5C 117.95,419.791 115.783,420.291 113.5,420C 119.648,414.429 125.981,409.096 132.5,404C 128.916,404.569 125.25,405.069 121.5,405.5C 116.635,405.49 112.302,403.99 108.5,401C 95.9506,388.064 88.6173,372.564 86.5,354.5C 78.9682,353.813 75.8015,349.813 77,342.5C 79.2715,340.589 80.4382,338.089 80.5,335C 79.6894,328.257 78.0228,321.757 75.5,315.5C 77.999,274.839 89.8324,237.173 111,202.5C 110.566,198.548 110.566,194.548 111,190.5C 114.805,187.742 118.971,187.075 123.5,188.5C 125.118,192.644 125.951,196.978 126,201.5C 127.019,202.687 128.186,203.687 129.5,204.5C 139.241,193.793 151.241,186.96 165.5,184C 168.099,177.877 171.266,172.044 175,166.5C 172.535,160.314 168.702,154.814 163.5,150C 161.837,149.735 160.337,150.235 159,151.5C 157.488,150.743 156.154,149.743 155,148.5C 144.711,159.097 135.378,170.43 127,182.5C 125.887,184.329 124.387,185.163 122.5,185C 131.977,169.519 143.644,155.852 157.5,144C 154.982,142.498 152.482,140.998 150,139.5C 149.336,134.504 151.502,132.67 156.5,134C 162.698,143.87 170.031,152.87 178.5,161C 199.085,160.784 217.085,167.617 232.5,181.5C 233.833,182.167 233.833,182.833 232.5,183.5C 221.502,175.5 209.502,169.334 196.5,165C 191.275,162.754 186.275,163.088 181.5,166C 190.274,176.707 200.274,186.041 211.5,194C 222.762,200.546 233.596,207.712 244,215.5C 246.703,212.462 249.703,209.795 253,207.5C 249.943,198.058 245.276,189.391 239,181.5C 229.952,170.787 221.286,159.787 213,148.5C 211.667,145.833 210.333,143.167 209,140.5C 207.516,133.205 205.349,126.205 202.5,119.5C 203.822,119.33 204.989,119.663 206,120.5C 208.09,124.599 209.256,128.933 209.5,133.5C 218.865,129.769 228.532,126.935 238.5,125C 239.428,124.612 240.095,123.945 240.5,123C 238.111,113.767 235.111,104.767 231.5,96C 230.167,95.3333 228.833,95.3333 227.5,96C 222.012,98.5948 216.346,100.261 210.5,101C 210.833,100.667 211.167,100.333 211.5,100C 218.91,96.8711 226.077,93.3711 233,89.5C 234.144,89.9111 235.311,90.2444 236.5,90.5C 255.557,84.2834 274.89,83.1167 294.5,87C 304.064,90.8976 310.564,97.731 314,107.5C 316.38,115.069 318.38,122.736 320,130.5C 334.542,118.287 344.709,103.12 350.5,85C 344.329,77.3609 345.662,71.5276 354.5,67.5 Z M 260.5,87.5 C 295.15,83.3189 312.317,98.6522 312,133.5C 305.372,138.678 299.038,144.345 293,150.5C 288.934,142.703 284.601,135.036 280,127.5C 275.151,120.194 268.984,118.694 261.5,123C 255.849,124.47 250.182,124.636 244.5,123.5C 241.091,113.607 238.091,103.607 235.5,93.5C 243.91,91.313 252.244,89.313 260.5,87.5 Z M 347.5,107.5 C 346.382,114.354 344.549,121.021 342,127.5C 337.835,128.609 333.668,129.442 329.5,130C 336.504,123.178 342.504,115.678 347.5,107.5 Z M 432.5,119.5 C 440.052,120.296 447.052,122.796 453.5,127C 461.851,132.175 469.851,137.842 477.5,144C 474.749,148.837 471.749,153.503 468.5,158C 464.804,157.823 461.137,157.49 457.5,157C 459.818,158.993 462.484,160.159 465.5,160.5C 465.5,161.5 465.5,162.5 465.5,163.5C 464.448,163.351 463.448,163.517 462.5,164C 456.951,170.044 451.617,176.211 446.5,182.5C 436.374,173.606 425.707,165.44 414.5,158C 411.491,155.061 411.824,152.728 415.5,151C 424.176,149.332 432.842,147.665 441.5,146C 436.833,145.333 432.167,145.333 427.5,146C 422.514,146.997 417.514,147.831 412.5,148.5C 412.751,137.537 417.084,128.704 425.5,122C 428.004,121.302 430.337,120.469 432.5,119.5 Z M 237.5,127.5 C 239.766,127.141 241.599,127.808 243,129.5C 251.445,154.36 261.445,178.36 273,201.5C 262.333,192.167 252.333,182.167 243,171.5C 239.225,167.649 238.725,163.482 241.5,159C 240.809,157.933 240.309,156.766 240,155.5C 237.205,154.217 234.372,154.217 231.5,155.5C 229.963,159.844 231.463,162.844 236,164.5C 236.788,166.165 237.122,167.831 237,169.5C 226.61,160.718 218.11,150.385 211.5,138.5C 213.607,135.939 216.274,134.106 219.5,133C 225.531,130.832 231.531,128.999 237.5,127.5 Z M 245.5,128.5 C 250.316,127.35 255.316,127.184 260.5,128C 261.958,130.46 263.791,132.627 266,134.5C 266.423,141.504 266.257,148.504 265.5,155.5C 266.207,165.227 267.04,174.893 268,184.5C 259.984,165.933 252.484,147.266 245.5,128.5 Z M 277.5,130.5 C 283.027,136.879 287.027,144.212 289.5,152.5C 284.035,161.139 279.202,170.139 275,179.5C 270.949,166.457 269.616,153.124 271,139.5C 272.805,136.198 274.972,133.198 277.5,130.5 Z M 333.5,171.5 C 336.383,163.501 338.55,154.501 340,144.5C 340.333,152.167 340.667,159.833 341,167.5C 341.202,169.256 341.702,170.922 342.5,172.5C 342.833,172.167 343.167,171.833 343.5,171.5C 342.166,159.177 342.332,146.843 344,134.5C 346.425,132.078 349.425,131.078 353,131.5C 359.337,131.544 365.337,132.878 371,135.5C 371.361,140.055 373.194,143.888 376.5,147C 374.641,154.244 371.808,161.077 368,167.5C 363.833,171 359.667,174.5 355.5,178C 352.296,180.869 349.463,184.035 347,187.5C 345.956,186.377 345.29,185.044 345,183.5C 339.405,205.599 336.239,205.599 335.5,183.5C 340.159,183.985 341.492,182.152 339.5,178C 335.77,177.342 333.77,175.176 333.5,171.5 Z M 334.5,133.5 C 336.288,133.215 337.955,133.548 339.5,134.5C 334.954,148.639 331.121,162.972 328,177.5C 325.929,181.125 322.763,183.125 318.5,183.5C 317.672,178.868 317.172,174.202 317,169.5C 316.07,174.647 314.737,179.647 313,184.5C 314.626,169.698 317.293,155.032 321,140.5C 324.96,136.938 329.46,134.605 334.5,133.5 Z M 311.5,140.5 C 311.281,151.068 308.947,161.401 304.5,171.5C 302.735,173.053 300.902,173.386 299,172.5C 297.728,166.911 296.228,161.411 294.5,156C 299.764,150.229 305.43,145.063 311.5,140.5 Z M 379.5,146.5 C 380.117,146.611 380.617,146.944 381,147.5C 383.268,154.789 381.101,160.123 374.5,163.5C 374.167,163.167 373.833,162.833 373.5,162.5C 375.807,157.262 377.807,151.929 379.5,146.5 Z M 479.5,147.5 C 480.552,147.351 481.552,147.517 482.5,148C 487.833,154 493.167,160 498.5,166C 493.702,168.635 489.035,171.468 484.5,174.5C 480.148,169.75 475.815,165.084 471.5,160.5C 474.194,156.149 476.86,151.816 479.5,147.5 Z M 400.5,158.5 C 403.199,158.466 405.699,159.133 408,160.5C 408.017,166.592 407.183,172.592 405.5,178.5C 400.934,177.816 396.267,177.649 391.5,178C 387.492,176.887 383.659,175.387 380,173.5C 379.441,169.447 380.941,166.28 384.5,164C 389.715,161.429 395.048,159.596 400.5,158.5 Z M 291.5,159.5 C 293.663,163.63 294.996,168.13 295.5,173C 294.206,177.049 293.373,181.215 293,185.5C 291.954,183.91 290.787,182.41 289.5,181C 288.668,180.312 288.002,180.479 287.5,181.5C 289.801,185.765 291.801,190.098 293.5,194.5C 292.409,202.888 291.242,211.221 290,219.5C 276.851,199.127 277.351,179.127 291.5,159.5 Z M 411.5,161.5 C 425.019,168.61 436.685,178.11 446.5,190C 443.889,194.448 440.222,197.615 435.5,199.5C 429.156,196.332 423.489,192.166 418.5,187C 414.506,184.989 411.172,182.323 408.5,179C 409.772,173.203 410.772,167.369 411.5,161.5 Z M 470.5,164.5 C 474.12,166.285 476.953,168.952 479,172.5C 480.373,174.695 480.706,177.029 480,179.5C 473.352,186.527 465.519,191.36 456.5,194C 454.586,192.587 453.253,190.753 452.5,188.5C 458.509,180.47 464.509,172.47 470.5,164.5 Z M 176.5,168.5 C 183.744,174.238 190.577,180.572 197,187.5C 197.667,188.167 197.667,188.833 197,189.5C 188.45,186.79 179.783,184.79 171,183.5C 170.333,182.5 170.333,181.5 171,180.5C 172.588,176.328 174.421,172.328 176.5,168.5 Z M 375.5,169.5 C 376.645,170.793 376.311,171.959 374.5,173C 373.5,173.667 372.5,173.667 371.5,173C 373.324,172.34 374.657,171.173 375.5,169.5 Z M 497.5,170.5 C 499.199,170.34 500.866,170.506 502.5,171C 514.139,184.277 521.805,199.611 525.5,217C 513.73,225.639 501.23,233.139 488,239.5C 486.739,239.241 485.739,238.574 485,237.5C 480.927,228.349 476.094,219.682 470.5,211.5C 475.468,203.23 479.635,194.563 483,185.5C 487.364,179.97 492.198,174.97 497.5,170.5 Z M 457.5,174.5 C 455.638,178.542 453.138,182.208 450,185.5C 449.5,185 449,184.5 448.5,184C 451.001,180.333 454.001,177.166 457.5,174.5 Z M 371.5,177.5 C 372.649,177.791 373.316,178.624 373.5,180C 370.644,191.098 365.978,201.264 359.5,210.5C 358.877,208.034 358.043,205.701 357,203.5C 356.857,207.619 356.19,211.619 355,215.5C 352.629,218.206 349.963,220.539 347,222.5C 347.614,211.041 350.281,200.041 355,189.5C 359.629,184.121 365.129,180.121 371.5,177.5 Z M 378.5,178.5 C 385.775,178.965 391.442,182.132 395.5,188C 397.256,188.202 398.922,188.702 400.5,189.5C 396.748,196.754 391.248,202.087 384,205.5C 382.803,208.089 381.803,210.756 381,213.5C 370.797,219.366 362.131,227.032 355,236.5C 358.241,225.004 362.908,214.004 369,203.5C 371.89,194.988 375.057,186.654 378.5,178.5 Z M 321.5,184.5 C 323.527,184.338 325.527,184.505 327.5,185C 323.78,206.375 320.613,227.875 318,249.5C 316.404,228.537 316.071,207.537 317,186.5C 318.622,185.901 320.122,185.234 321.5,184.5 Z M 422.5,195.5 C 416.969,192.97 411.969,189.636 407.5,185.5C 408,185.167 408.5,184.833 409,184.5C 414.618,186.966 419.118,190.633 422.5,195.5 Z M 330.5,186.5 C 331.793,187.842 332.626,189.509 333,191.5C 334.239,197.461 334.573,203.461 334,209.5C 328.482,221.712 324.815,234.379 323,247.5C 323.612,226.936 326.112,206.603 330.5,186.5 Z M 478.5,186.5 C 476.873,194.131 473.706,201.464 469,208.5C 466.147,205.948 463.647,203.115 461.5,200C 467.93,196.397 473.597,191.897 478.5,186.5 Z M 162.5,187.5 C 163.5,187.5 164.5,187.5 165.5,187.5C 164.411,197.137 163.578,206.804 163,216.5C 159.912,218.294 156.746,219.961 153.5,221.5C 145.804,217.654 138.804,212.82 132.5,207C 140.386,197.225 150.386,190.725 162.5,187.5 Z M 166.5,215.5 C 166.192,206.736 166.858,198.069 168.5,189.5C 180.554,187.469 192.221,189.302 203.5,195C 208.892,200.457 213.558,206.457 217.5,213C 211.43,219.118 212.763,222.785 221.5,224C 222.833,225.333 224.167,226.667 225.5,228C 215.826,223.507 205.826,219.507 195.5,216C 185.859,214.201 176.193,214.035 166.5,215.5 Z M 312.5,187.5 C 313.663,209.329 313.83,231.329 313,253.5C 308.892,241.625 306.058,229.458 304.5,217C 304.866,209.437 305.699,201.937 307,194.5C 308.666,192.004 310.5,189.671 312.5,187.5 Z M 404.5,189.5 C 411.271,192.72 417.937,196.22 424.5,200C 413.079,208.46 401.246,216.294 389,223.5C 383.072,221.679 381.739,218.346 385,213.5C 391.713,205.626 398.213,197.626 404.5,189.5 Z M 449.5,192.5 C 451.446,193.254 452.279,194.588 452,196.5C 449.355,198.415 446.521,199.582 443.5,200C 445.334,197.337 447.334,194.837 449.5,192.5 Z M 250.5,193.5 C 267.079,206.268 278.912,222.601 286,242.5C 287.807,246.756 289.307,251.089 290.5,255.5C 274.677,236.542 261.344,215.876 250.5,193.5 Z M 233.5,224.5 C 230.386,223.909 227.886,222.242 226,219.5C 220.841,212.816 216.508,205.816 213,198.5C 222.58,204.248 231.746,210.581 240.5,217.5C 238.972,218.861 237.305,220.028 235.5,221C 234.177,221.816 233.511,222.983 233.5,224.5 Z M 295.5,199.5 C 297.028,209.64 297.528,219.974 297,230.5C 295.574,220.246 295.074,209.912 295.5,199.5 Z M 454.5,202.5 C 456.655,202.372 458.655,202.872 460.5,204C 462.5,206.667 464.5,209.333 466.5,212C 451.141,228.37 434.308,242.87 416,255.5C 420.222,244.39 425.555,233.724 432,223.5C 434.992,219.508 438.326,215.842 442,212.5C 442.45,210.481 443.283,208.648 444.5,207C 447.893,205.38 451.226,203.88 454.5,202.5 Z M 114.5,203.5 C 116.857,203.337 119.19,203.503 121.5,204C 123.711,205.721 125.711,207.721 127.5,210C 121.58,222.174 117.747,235.007 116,248.5C 102.45,273.813 95.4504,300.813 95,329.5C 92.6586,332.671 90.1586,335.671 87.5,338.5C 85.2589,337.968 83.7589,336.635 83,334.5C 77.1797,286.817 87.6797,243.15 114.5,203.5 Z M 404.5,220.5 C 410.179,214.658 416.346,209.325 423,204.5C 423.333,207.668 422.499,210.501 420.5,213C 415.265,215.785 409.932,218.285 404.5,220.5 Z M 345.5,205.5 C 346.412,216.37 343.579,226.37 337,235.5C 338.292,225.116 341.126,215.116 345.5,205.5 Z M 279.5,247.5 C 269.624,236.124 258.624,225.958 246.5,217C 249,214.5 251.5,212 254,209.5C 262.747,222.066 271.247,234.733 279.5,247.5 Z M 527.5,209.5 C 529.515,211.676 531.182,214.176 532.5,217C 531.552,217.483 530.552,217.649 529.5,217.5C 528.361,214.996 527.694,212.33 527.5,209.5 Z M 128.5,213.5 C 139.943,218.497 151.276,223.997 162.5,230C 160.444,230.311 158.444,230.811 156.5,231.5C 155.289,233.422 153.956,235.255 152.5,237C 145.574,238.307 139.24,240.974 133.5,245C 139.756,243.377 146.089,242.044 152.5,241C 153.79,243.292 155.457,245.292 157.5,247C 173.984,257.576 191.318,266.576 209.5,274C 197.298,274.967 185.632,277.967 174.5,283C 160.008,290.412 145.674,298.079 131.5,306C 129.35,307.59 127.017,308.257 124.5,308C 115.281,300.455 109.948,290.788 108.5,279C 110.728,263.152 119.728,254.486 135.5,253C 137.245,251.308 137.578,249.475 136.5,247.5C 134.067,250.242 131.067,251.075 127.5,250C 126,247.167 123.833,245 121,243.5C 121.332,232.995 123.832,222.995 128.5,213.5 Z M 421.5,215.5 C 422.873,215.343 424.207,215.51 425.5,216C 418.052,221.904 409.719,226.404 400.5,229.5C 400.167,229.167 399.833,228.833 399.5,228.5C 406.35,223.31 413.683,218.977 421.5,215.5 Z M 466.5,215.5 C 468.371,215.859 469.871,216.859 471,218.5C 475.613,225.392 479.447,232.725 482.5,240.5C 481.687,241.814 480.687,242.981 479.5,244C 467.669,250.079 456.335,256.912 445.5,264.5C 437.617,260.372 429.284,257.539 420.5,256C 437.213,244.123 452.547,230.623 466.5,215.5 Z M 174.5,216.5 C 180.565,216.261 186.565,216.761 192.5,218C 205.002,222.252 217.002,227.585 228.5,234C 218.347,231.415 208.014,229.248 197.5,227.5C 194.018,228.743 190.684,230.243 187.5,232C 180.59,232.585 174.423,230.752 169,226.5C 168.358,224.238 167.525,222.071 166.5,220C 169.025,218.281 171.692,217.114 174.5,216.5 Z M 377.5,218.5 C 379.225,218.843 379.725,219.843 379,221.5C 377.503,225.165 375.503,228.498 373,231.5C 363.359,239.308 354.192,247.641 345.5,256.5C 343.809,258.256 341.809,258.756 339.5,258C 348.009,249.157 356.176,239.99 364,230.5C 368.099,225.892 372.599,221.892 377.5,218.5 Z M 161.5,220.5 C 162.496,220.414 163.329,220.748 164,221.5C 166.118,228.345 164.284,228.845 158.5,223C 159.571,222.148 160.571,221.315 161.5,220.5 Z M 233.5,224.5 C 236.591,223.457 239.591,222.123 242.5,220.5C 251.62,225.491 259.786,231.825 267,239.5C 272.833,246.667 278.667,253.833 284.5,261C 281.199,260.176 278.199,258.51 275.5,256C 267.796,248.627 259.796,241.627 251.5,235C 245.864,230.689 239.864,227.189 233.5,224.5 Z M 524.5,221.5 C 526.727,244.114 516.727,257.947 494.5,263C 490.825,256.979 488.991,250.479 489,243.5C 499.085,237.54 509.252,231.707 519.5,226C 521.618,224.951 523.284,223.451 524.5,221.5 Z M 355.5,222.5 C 353.182,234.629 347.348,244.629 338,252.5C 339.956,240.257 345.789,230.257 355.5,222.5 Z M 380.5,222.5 C 382.544,223.031 384.211,224.198 385.5,226C 383.301,227.697 380.968,229.197 378.5,230.5C 378.167,230.333 377.833,230.167 377.5,230C 378.642,227.55 379.642,225.05 380.5,222.5 Z M 420.5,222.5 C 421.239,222.369 421.906,222.536 422.5,223C 418.732,230.426 414.566,237.592 410,244.5C 408.971,240.111 407.138,236.111 404.5,232.5C 409.861,229.156 415.195,225.822 420.5,222.5 Z M 528.5,222.5 C 530.411,222.574 531.578,223.574 532,225.5C 537.544,241.219 541.044,257.386 542.5,274C 542.6,277.804 540.934,280.471 537.5,282C 524.171,282.5 510.837,282.667 497.5,282.5C 497.094,278.136 496.428,273.803 495.5,269.5C 495.833,268.5 496.167,267.5 496.5,266.5C 518.283,260.034 528.95,245.367 528.5,222.5 Z M 535.5,225.5 C 542.153,238.284 547.153,251.784 550.5,266C 550.059,268.722 548.559,270.556 546,271.5C 543.34,256.041 539.84,240.707 535.5,225.5 Z M 235.5,229.5 C 237.674,229.75 239.341,230.75 240.5,232.5C 238.326,232.25 236.659,231.25 235.5,229.5 Z M 376.5,245.5 C 382.06,240.042 388.06,235.042 394.5,230.5C 395.086,230.709 395.586,231.043 396,231.5C 396.163,233.387 395.329,234.887 393.5,236C 388.182,239.824 382.516,242.991 376.5,245.5 Z M 387.5,231.5 C 387.027,232.906 386.027,233.573 384.5,233.5C 384.973,232.094 385.973,231.427 387.5,231.5 Z M 242.5,233.5 C 244.027,233.427 245.027,234.094 245.5,235.5C 243.973,235.573 242.973,234.906 242.5,233.5 Z M 245.5,235.5 C 247.027,235.427 248.027,236.094 248.5,237.5C 246.973,237.573 245.973,236.906 245.5,235.5 Z M 397.5,236.5 C 398.496,236.414 399.329,236.748 400,237.5C 402.199,241.598 403.699,245.931 404.5,250.5C 396.864,254.318 389.198,258.151 381.5,262C 380.5,262.667 379.5,262.667 378.5,262C 384.28,253.058 390.613,244.558 397.5,236.5 Z M 371.5,238.5 C 367.021,243.647 361.687,247.647 355.5,250.5C 359.979,245.353 365.313,241.353 371.5,238.5 Z M 267.5,273.5 C 259.401,268.583 251.401,263.416 243.5,258C 238.464,255.482 233.464,252.982 228.5,250.5C 226.627,250.482 226.294,250.982 227.5,252C 236.696,256.54 245.362,261.874 253.5,268C 245.516,267.221 237.516,266.221 229.5,265C 222.572,258.95 215.739,252.784 209,246.5C 206.519,242.601 207.519,240.268 212,239.5C 221.748,241.417 230.914,244.917 239.5,250C 249.317,257.322 258.65,265.155 267.5,273.5 Z M 404.5,239.5 C 406.96,241.398 407.96,243.731 407.5,246.5C 405.918,244.423 404.918,242.09 404.5,239.5 Z M 176.5,240.5 C 180.308,240.163 183.974,240.663 187.5,242C 190.373,245.577 192.873,249.411 195,253.5C 196.543,255.378 198.376,256.878 200.5,258C 204.603,258.287 208.603,257.953 212.5,257C 234.488,274.834 231.488,278.501 203.5,268C 191.049,262.878 179.049,256.878 167.5,250C 166.483,248.951 166.316,247.784 167,246.5C 169.843,243.837 173.009,241.837 176.5,240.5 Z M 250.5,244.5 C 253.335,245.069 255.001,246.736 255.5,249.5C 253.5,248.167 251.833,246.5 250.5,244.5 Z M 385.5,244.5 C 379.519,253.98 371.685,261.647 362,267.5C 367.572,257.763 375.405,250.097 385.5,244.5 Z M 372.5,245.5 C 375.258,246.967 374.925,247.633 371.5,247.5C 371.328,246.508 371.662,245.842 372.5,245.5 Z M 202.5,246.5 C 207.298,247.275 209.298,249.942 208.5,254.5C 202.984,256.68 198.984,255.013 196.5,249.5C 198.594,248.482 200.594,247.482 202.5,246.5 Z M 482.5,246.5 C 483.496,246.414 484.329,246.748 485,247.5C 486.601,252.136 488.101,256.802 489.5,261.5C 489.167,262.167 488.833,262.833 488.5,263.5C 477.537,265.959 466.537,268.293 455.5,270.5C 452.13,270.291 450.297,268.624 450,265.5C 460.322,258.257 471.155,251.924 482.5,246.5 Z M 280.5,248.5 C 281.906,248.973 282.573,249.973 282.5,251.5C 281.094,251.027 280.427,250.027 280.5,248.5 Z M 116.5,256.5 C 116.965,253.527 118.632,252.36 121.5,253C 120.154,254.669 118.487,255.836 116.5,256.5 Z M 283.5,252.5 C 284.906,252.973 285.573,253.973 285.5,255.5C 284.094,255.027 283.427,254.027 283.5,252.5 Z M 357.5,253.5 C 355.177,257.488 352.177,260.821 348.5,263.5C 345.921,262.112 345.921,260.612 348.5,259C 351.222,256.642 354.222,254.809 357.5,253.5 Z M 401.5,255.5 C 402.525,255.897 402.692,256.563 402,257.5C 394.768,266.017 385.601,270.517 374.5,271C 382.943,264.781 391.943,259.615 401.5,255.5 Z M 412.5,259.5 C 422.63,259.198 431.964,261.698 440.5,267C 428.593,268.994 416.593,269.66 404.5,269C 407.002,265.667 409.668,262.501 412.5,259.5 Z M 298.5,267.5 C 303.403,263.386 309.07,261.552 315.5,262C 309.7,263.545 304.033,265.378 298.5,267.5 Z M 321.5,262.5 C 327.467,261.394 333.133,262.56 338.5,266C 332.949,264.699 327.283,263.533 321.5,262.5 Z M 313.5,266.5 C 316.187,266.336 318.854,266.503 321.5,267C 320.012,270.952 318.679,274.952 317.5,279C 292.981,279.703 291.648,275.537 313.5,266.5 Z M 486.5,266.5 C 489.999,266.259 490.332,267.092 487.5,269C 481.663,272.418 475.996,276.084 470.5,280C 471.5,280.667 472.5,280.667 473.5,280C 479.167,276.833 484.833,273.667 490.5,270.5C 492.652,273.216 493.986,276.383 494.5,280C 494.095,280.945 493.428,281.612 492.5,282C 483.833,282.667 475.167,282.667 466.5,282C 463.177,279.676 460.177,277.009 457.5,274C 467.116,271.047 476.783,268.547 486.5,266.5 Z M 326.5,267.5 C 331.369,268.601 335.702,270.768 339.5,274C 334.932,277.125 329.932,278.792 324.5,279C 323.833,278.333 323.167,277.667 322.5,277C 323.42,273.66 324.753,270.493 326.5,267.5 Z M 370.5,267.5 C 369.432,270.075 367.765,272.242 365.5,274C 363.799,274.345 362.466,273.678 361.5,272C 364.411,270.239 367.411,268.739 370.5,267.5 Z M 264.5,284.5 C 254.585,280.543 245.251,275.543 236.5,269.5C 243.113,268.714 249.446,269.881 255.5,273C 258.629,276.773 261.629,280.606 264.5,284.5 Z M 296.5,268.5 C 295.341,270.25 293.674,271.25 291.5,271.5C 292.659,269.75 294.326,268.75 296.5,268.5 Z M 444.5,269.5 C 448.88,270.099 449.214,271.099 445.5,272.5C 444.614,271.675 444.281,270.675 444.5,269.5 Z M 429.5,270.5 C 433.555,270.176 437.555,270.509 441.5,271.5C 439.899,274.614 437.399,276.28 434,276.5C 427.449,275.237 420.949,273.737 414.5,272C 419.684,271.826 424.684,271.326 429.5,270.5 Z M 291.5,271.5 C 291.027,272.906 290.027,273.573 288.5,273.5C 288.973,272.094 289.973,271.427 291.5,271.5 Z M 261.5,274.5 C 265.14,276.32 268.807,278.153 272.5,280C 273.841,281.826 273.341,282.993 271,283.5C 266.006,282.338 262.84,279.338 261.5,274.5 Z M 447.5,274.5 C 452.429,275.915 456.429,278.748 459.5,283C 452.867,282.568 446.533,280.902 440.5,278C 442.925,276.787 445.259,275.621 447.5,274.5 Z M 400.5,275.5 C 406.011,275.205 411.344,276.038 416.5,278C 412.687,279.262 408.687,279.929 404.5,280C 406.988,281.685 406.655,283.019 403.5,284C 398.934,286.632 394.101,288.465 389,289.5C 388.333,288.5 388.333,287.5 389,286.5C 392.729,282.602 396.562,278.935 400.5,275.5 Z M 341.5,277.5 C 342.649,277.791 343.316,278.624 343.5,280C 342.493,282.517 341.326,285.017 340,287.5C 339.333,290.833 339.333,294.167 340,297.5C 342.558,304.282 345.391,310.949 348.5,317.5C 345.597,325.742 339.93,330.742 331.5,332.5C 332.85,326.278 334.517,320.112 336.5,314C 335.928,310.616 334.761,307.449 333,304.5C 330.05,299.882 326.716,295.548 323,291.5C 322.333,289.5 322.333,287.5 323,285.5C 327.447,283.928 331.947,282.428 336.5,281C 338.346,279.97 340.013,278.804 341.5,277.5 Z M 382.5,277.5 C 384.842,277.775 384.842,278.608 382.5,280C 378.752,282.624 374.919,285.124 371,287.5C 369.599,285.854 369.432,284.187 370.5,282.5C 374.6,280.808 378.6,279.141 382.5,277.5 Z M 418.5,280.5 C 421.898,280.18 425.232,280.513 428.5,281.5C 425.006,284.824 421.339,287.991 417.5,291C 412.446,290.824 407.446,289.991 402.5,288.5C 407.402,284.872 412.736,282.206 418.5,280.5 Z M 105.5,281.5 C 106.7,286.927 108.534,292.26 111,297.5C 114.465,301.967 118.298,306.133 122.5,310C 115.738,315.132 108.571,319.632 101,323.5C 99.051,322.042 98.2177,320.042 98.5,317.5C 99.1153,305.137 101.449,293.137 105.5,281.5 Z M 254.5,306.5 C 244.478,305.553 234.811,303.22 225.5,299.5C 222.611,299.931 219.778,300.597 217,301.5C 205.345,298.949 194.512,294.449 184.5,288C 194.397,283.249 204.897,281.082 216,281.5C 220.859,281.628 225.693,281.961 230.5,282.5C 230.337,284.857 230.503,287.19 231,289.5C 238.176,296.192 246.01,301.858 254.5,306.5 Z M 288.5,281.5 C 297.232,281.409 305.898,282.076 314.5,283.5C 314.703,285.39 314.037,286.89 312.5,288C 306.888,291.639 300.888,294.472 294.5,296.5C 292.971,296.471 291.804,295.804 291,294.5C 289.735,290.246 288.902,285.912 288.5,281.5 Z M 349.5,281.5 C 355.295,289.68 357.462,298.68 356,308.5C 354.981,309.687 353.814,310.687 352.5,311.5C 348.404,305.644 345.07,299.311 342.5,292.5C 344.594,288.636 346.928,284.969 349.5,281.5 Z M 433.5,281.5 C 442.079,282.894 450.412,285.061 458.5,288C 451.403,292.963 444.236,297.796 437,302.5C 431.391,298.945 425.557,295.778 419.5,293C 424.065,288.925 428.732,285.091 433.5,281.5 Z M 235.5,283.5 C 238.596,284.123 241.596,285.123 244.5,286.5C 245.386,287.325 245.719,288.325 245.5,289.5C 240.581,290.628 236.915,289.128 234.5,285C 235.056,284.617 235.389,284.117 235.5,283.5 Z M 489.5,284.5 C 491.5,284.5 493.5,284.5 495.5,284.5C 496.008,287.176 496.175,289.843 496,292.5C 494.178,294.045 492.011,294.712 489.5,294.5C 482.849,294.006 476.849,291.84 471.5,288C 472.328,287.085 473.328,286.419 474.5,286C 479.684,285.826 484.684,285.326 489.5,284.5 Z M 498.5,284.5 C 509.829,285.014 521.162,285.514 532.5,286C 523.09,290.192 513.423,293.692 503.5,296.5C 499.9,293.38 498.233,289.38 498.5,284.5 Z M 357.5,285.5 C 361.013,289.864 362.846,294.864 363,300.5C 360.271,295.81 358.437,290.81 357.5,285.5 Z M 319.5,286.5 C 320.782,287.708 320.782,289.042 319.5,290.5C 317.206,289.375 317.206,288.041 319.5,286.5 Z M 179.5,288.5 C 191.982,296.24 205.315,302.073 219.5,306C 222.082,309.282 225.416,310.282 229.5,309C 231.209,307.455 233.209,306.622 235.5,306.5C 242.261,307.178 248.928,308.345 255.5,310C 236.284,313.536 216.951,316.203 197.5,318C 183.155,318.833 168.822,318.666 154.5,317.5C 159.64,305.03 167.974,295.364 179.5,288.5 Z M 248.5,288.5 C 251.09,289.128 253.423,290.295 255.5,292C 253.447,292.325 251.447,291.991 249.5,291C 248.748,290.329 248.414,289.496 248.5,288.5 Z M 283.5,288.5 C 285.176,289.183 285.843,290.517 285.5,292.5C 284.325,292.719 283.325,292.386 282.5,291.5C 283.127,290.583 283.461,289.583 283.5,288.5 Z M 459.5,290.5 C 460.822,290.33 461.989,290.663 463,291.5C 465.361,294.888 467.194,298.554 468.5,302.5C 467.975,303.192 467.308,303.692 466.5,304C 458.802,305.087 451.136,306.253 443.5,307.5C 442.112,306.409 441.612,305.076 442,303.5C 447.812,299.024 453.645,294.691 459.5,290.5 Z M 468.5,290.5 C 475.973,294.733 483.973,297.566 492.5,299C 486.302,301.137 479.969,302.137 473.5,302C 470.962,298.553 469.295,294.72 468.5,290.5 Z M 276.5,291.5 C 275.298,295.578 273.798,299.578 272,303.5C 272.097,298.973 273.597,294.973 276.5,291.5 Z M 545.5,291.5 C 547.446,293.734 548.613,296.401 549,299.5C 552.201,314.844 552.201,330.178 549,345.5C 548.612,346.428 547.945,347.095 547,347.5C 532.994,343.107 519.494,337.44 506.5,330.5C 504.6,323.663 503.267,316.663 502.5,309.5C 502.62,306.936 503.953,305.436 506.5,305C 519.432,299.968 532.432,295.468 545.5,291.5 Z M 163.5,292.5 C 160.169,296 157.002,299.666 154,303.5C 151.898,307.929 149.398,312.095 146.5,316C 141.315,315.835 136.482,314.335 132,311.5C 131.911,309.887 132.745,308.72 134.5,308C 143.903,302.299 153.57,297.132 163.5,292.5 Z M 395.5,292.5 C 400.08,292.113 404.414,292.947 408.5,295C 409.991,297.022 409.658,298.688 407.5,300C 396.261,302.51 384.928,303.01 373.5,301.5C 374.92,298.064 376.753,297.398 379,299.5C 381.79,298.906 384.29,297.739 386.5,296C 385.5,295.667 384.5,295.333 383.5,295C 387.637,294.161 391.637,293.327 395.5,292.5 Z M 244.5,293.5 C 252.395,294.52 259.729,297.02 266.5,301C 265.667,301.833 264.833,302.667 264,303.5C 257.235,300.535 250.735,297.202 244.5,293.5 Z M 412.5,293.5 C 414.337,293.639 414.67,294.306 413.5,295.5C 412.702,295.043 412.369,294.376 412.5,293.5 Z M 312.5,294.5 C 314.989,294.298 317.323,294.798 319.5,296C 323.752,299.581 327.252,303.748 330,308.5C 332.65,315.708 330.817,321.541 324.5,326C 319.5,326.667 314.5,326.667 309.5,326C 308.333,325.5 307.5,324.667 307,323.5C 304.407,327.083 302.073,326.75 300,322.5C 297.541,316.339 296.207,310.006 296,303.5C 301.199,299.833 306.699,296.833 312.5,294.5 Z M 280.5,296.5 C 283.961,295.889 286.628,297.056 288.5,300C 286.377,304.415 283.877,308.582 281,312.5C 279.556,314.155 277.722,314.822 275.5,314.5C 274.439,307.68 276.106,301.68 280.5,296.5 Z M 416.5,297.5 C 420.901,296.87 424.568,298.203 427.5,301.5C 426.098,303.146 424.264,304.146 422,304.5C 418.158,303.721 414.325,302.887 410.5,302C 412.684,300.637 414.684,299.137 416.5,297.5 Z M 391.5,305.5 C 401.329,305.231 401.663,306.064 392.5,308C 388.167,308.667 383.833,308.667 379.5,308C 383.637,307.161 387.637,306.327 391.5,305.5 Z M 405.5,305.5 C 410.543,306.008 415.543,306.842 420.5,308C 411.675,310.462 402.675,311.462 393.5,311C 397.71,309.391 401.71,307.558 405.5,305.5 Z M 495.5,306.5 C 496.552,306.351 497.552,306.517 498.5,307C 494.467,311.368 490.134,315.368 485.5,319C 484.5,319.667 483.5,319.667 482.5,319C 480.5,317 478.5,315 476.5,313C 482.664,310.113 488.997,307.946 495.5,306.5 Z M 289.5,308.5 C 290.79,309.058 291.623,310.058 292,311.5C 295.125,319.579 296.125,327.913 295,336.5C 291.391,337.062 288.058,336.062 285,333.5C 283.778,329.39 282.278,325.39 280.5,321.5C 283.263,316.963 286.263,312.63 289.5,308.5 Z M 498.5,310.5 C 499.117,310.611 499.617,310.944 500,311.5C 500.691,317.07 501.524,322.57 502.5,328C 497.252,327.211 492.585,325.044 488.5,321.5C 491.855,317.813 495.189,314.147 498.5,310.5 Z M 125.5,312.5 C 131.953,315.263 138.453,317.929 145,320.5C 144.944,325.514 144.444,330.514 143.5,335.5C 129.535,336.259 116.535,333.092 104.5,326C 111.225,320.977 118.225,316.477 125.5,312.5 Z M 476.5,317.5 C 472.938,317.035 469.605,315.868 466.5,314C 471.134,311.492 474.467,312.659 476.5,317.5 Z M 359.5,313.5 C 361.2,314.016 362.533,315.016 363.5,316.5C 361.207,320.758 358.207,324.424 354.5,327.5C 352.616,326.307 352.116,324.641 353,322.5C 354.611,319.062 356.777,316.062 359.5,313.5 Z M 243.5,315.5 C 250.508,315.334 257.508,315.5 264.5,316C 265.336,317.243 265.003,318.41 263.5,319.5C 261.075,321.145 258.408,322.311 255.5,323C 244.919,325.107 234.253,326.607 223.5,327.5C 218.986,326.323 214.652,324.656 210.5,322.5C 205.204,325.934 199.538,328.768 193.5,331C 179.332,334.191 164.999,336.024 150.5,336.5C 150.908,331.463 151.574,326.463 152.5,321.5C 174.429,322.125 196.262,321.125 218,318.5C 218.574,319.354 219.241,320.354 220,321.5C 227.717,318.53 235.55,316.53 243.5,315.5 Z M 449.5,315.5 C 455.34,317.082 461.007,319.248 466.5,322C 467.451,322.718 467.617,323.551 467,324.5C 465.562,325.718 463.895,326.385 462,326.5C 455.777,325.988 449.943,324.321 444.5,321.5C 442.394,322.43 440.394,323.596 438.5,325C 424.12,325.911 409.786,325.578 395.5,324C 405.029,322.721 414.695,321.721 424.5,321C 432.75,318.479 441.083,316.646 449.5,315.5 Z M 271.5,319.5 C 273.017,319.511 274.184,320.177 275,321.5C 277.893,326.18 279.56,331.18 280,336.5C 276.101,331.369 273.268,325.702 271.5,319.5 Z M 470.5,324.5 C 473.947,324.814 477.28,325.648 480.5,327C 476.739,327.738 473.072,327.405 469.5,326C 470.056,325.617 470.389,325.117 470.5,324.5 Z M 392.5,334.5 C 388.344,334.422 385.011,332.755 382.5,329.5C 384.343,326.578 387.01,325.245 390.5,325.5C 390.405,328.692 391.071,331.692 392.5,334.5 Z M 394.5,326.5 C 397.778,327.391 401.111,328.224 404.5,329C 400.02,334.941 396.353,334.775 393.5,328.5C 393.863,327.817 394.196,327.15 394.5,326.5 Z M 101.5,328.5 C 114.263,335.441 127.93,338.774 142.5,338.5C 143.034,344.508 143.701,350.508 144.5,356.5C 144.43,357.772 144.097,358.938 143.5,360C 134.553,361.865 125.553,361.865 116.5,360C 108.02,358.432 102.354,353.598 99.5,345.5C 102.478,341.116 102.145,337.116 98.5,333.5C 99.2599,331.64 100.26,329.973 101.5,328.5 Z M 409.5,328.5 C 417.847,328.719 426.18,329.219 434.5,330C 424.797,335.053 414.464,336.886 403.5,335.5C 404.089,331.914 406.089,329.58 409.5,328.5 Z M 451.5,328.5 C 454.187,328.336 456.854,328.503 459.5,329C 449.327,334.921 438.994,340.587 428.5,346C 429.833,346.667 431.167,346.667 432.5,346C 443.167,341 453.833,336 464.5,331C 466.167,330.333 467.833,330.333 469.5,331C 479.35,338.546 485.184,348.379 487,360.5C 484.897,362.303 484.064,364.636 484.5,367.5C 470.871,361.455 456.871,356.289 442.5,352C 441.833,350.333 441.167,348.667 440.5,347C 439.833,346.833 439.167,346.667 438.5,346.5C 436.743,348.409 434.576,349.742 432,350.5C 422.302,347.087 412.468,343.921 402.5,341C 400.336,340.086 398.336,338.919 396.5,337.5C 399.497,336.524 402.497,336.69 405.5,338C 417.811,339.909 428.811,337.076 438.5,329.5C 440.44,330.095 442.44,330.428 444.5,330.5C 447.205,330.684 449.538,330.017 451.5,328.5 Z M 244.5,337.5 C 248.287,333.44 252.954,331.273 258.5,331C 254.418,334.417 249.751,336.583 244.5,337.5 Z M 304.5,330.5 C 311.563,330.212 318.563,330.712 325.5,332C 328.072,335.819 327.905,339.652 325,343.5C 316.885,343.308 309.052,341.308 301.5,337.5C 299.687,333.81 300.687,331.476 304.5,330.5 Z M 345.5,330.5 C 349.987,330.141 351.654,331.974 350.5,336C 344.054,340.725 337.054,344.058 329.5,346C 333.382,339.284 338.716,334.117 345.5,330.5 Z M 475.5,330.5 C 484.908,330.727 493.742,333.06 502,337.5C 504.634,348.938 505.468,360.438 504.5,372C 500.796,372.804 497.296,372.304 494,370.5C 491.331,355.498 485.164,342.165 475.5,330.5 Z M 195.5,333.5 C 197.379,333.393 197.712,333.893 196.5,335C 182.482,343.01 168.149,350.51 153.5,357.5C 152.914,357.291 152.414,356.957 152,356.5C 150.434,350.978 150.267,345.478 151.5,340C 166.452,338.801 181.118,336.634 195.5,333.5 Z M 244.5,337.5 C 235.305,341.211 225.639,343.211 215.5,343.5C 215.227,341.549 215.893,340.049 217.5,339C 223.5,338.667 229.5,338.333 235.5,338C 230.799,337.072 226.132,336.072 221.5,335C 229.162,334.154 236.829,333.82 244.5,334C 240.722,335.64 240.722,336.807 244.5,337.5 Z M 264.5,337.5 C 265.479,334.843 267.146,334.177 269.5,335.5C 268.15,336.95 266.484,337.617 264.5,337.5 Z M 378.5,338.5 C 375.813,338.664 373.146,338.497 370.5,338C 373.288,336.197 375.955,336.364 378.5,338.5 Z M 92.5,338.5 C 92.3573,340.262 92.6906,341.929 93.5,343.5C 96.944,348.209 100.277,353.042 103.5,358C 98.3461,358.421 93.8461,356.921 90,353.5C 89.8502,350.579 90.3502,347.746 91.5,345C 90.1578,342.544 90.4911,340.378 92.5,338.5 Z M 202.5,339.5 C 205.125,341.286 207.625,343.286 210,345.5C 210.667,346.167 210.667,346.833 210,347.5C 193.144,358.685 177.144,371.018 162,384.5C 158.371,378.223 158.704,372.223 163,366.5C 174.994,355.653 188.161,346.653 202.5,339.5 Z M 506.5,339.5 C 516.166,342.831 525.499,346.998 534.5,352C 541.324,357.28 540.991,362.28 533.5,367C 526.105,371.515 518.105,373.515 509.5,373C 507.484,361.973 506.484,350.806 506.5,339.5 Z M 285.5,341.5 C 287.435,340.291 289.435,340.458 291.5,342C 289.512,342.18 287.512,342.014 285.5,341.5 Z M 269.5,341.5 C 271.686,341.511 272.519,342.511 272,344.5C 269.972,348.212 267.139,350.712 263.5,352C 261.327,350.135 260.993,347.969 262.5,345.5C 264.525,343.436 266.858,342.102 269.5,341.5 Z M 370.5,342.5 C 376.049,341.042 381.383,341.875 386.5,345C 380.753,346.817 375.42,345.984 370.5,342.5 Z M 297.5,342.5 C 304.831,343.554 311.831,345.721 318.5,349C 312.833,349.667 307.167,349.667 301.5,349C 299.481,348.55 297.648,347.717 296,346.5C 295.7,344.934 296.2,343.601 297.5,342.5 Z M 251.5,343.5 C 257.331,342.513 259.498,344.846 258,350.5C 251.616,359.89 244.116,368.39 235.5,376C 234.833,376.667 234.167,376.667 233.5,376C 226.374,368.563 221.208,360.063 218,350.5C 227.093,348.882 236.26,347.382 245.5,346C 247.723,345.434 249.723,344.6 251.5,343.5 Z M 354.5,343.5 C 353.738,345.262 352.404,346.262 350.5,346.5C 351.262,344.738 352.596,343.738 354.5,343.5 Z M 350.5,346.5 C 350.027,347.906 349.027,348.573 347.5,348.5C 347.973,347.094 348.973,346.427 350.5,346.5 Z M 399.5,346.5 C 403.229,346.576 406.562,347.743 409.5,350C 408.975,350.692 408.308,351.192 407.5,351.5C 404.769,349.808 402.102,348.142 399.5,346.5 Z M 380.5,347.5 C 390.406,346.385 398.739,349.385 405.5,356.5C 401.996,362.853 396.663,366.02 389.5,366C 384.5,360.333 379.5,354.667 374.5,349C 376.708,348.809 378.708,348.309 380.5,347.5 Z M 367.5,348.5 C 373.342,354.179 378.675,360.346 383.5,367C 375.674,365.484 370.174,360.984 367,353.5C 366.36,351.735 366.527,350.068 367.5,348.5 Z M 412.5,350.5 C 419.24,350.768 425.574,352.435 431.5,355.5C 430.284,359.321 428.784,362.988 427,366.5C 421.711,362.88 416.711,358.88 412,354.5C 411.421,353.072 411.588,351.738 412.5,350.5 Z M 174.5,351.5 C 167.865,357.303 161.698,363.636 156,370.5C 154.279,367.685 153.612,364.685 154,361.5C 160.832,358.062 167.666,354.729 174.5,351.5 Z M 225.5,372.5 C 216.088,380.408 207.088,388.908 198.5,398C 195.113,401.053 191.447,403.72 187.5,406C 178.514,405.001 171.514,400.668 166.5,393C 181.702,378.796 197.202,364.962 213,351.5C 216.675,358.858 220.841,365.858 225.5,372.5 Z M 264.5,373.5 C 267.049,367.401 269.882,361.401 273,355.5C 276.379,350.435 279.879,350.268 283.5,355C 278.634,362.699 272.301,368.866 264.5,373.5 Z M 357.5,351.5 C 358.822,351.33 359.989,351.663 361,352.5C 362.043,355.757 362.543,359.09 362.5,362.5C 355.363,361.405 353.697,357.739 357.5,351.5 Z M 335.5,355.5 C 334.552,357.46 334.386,359.46 335,361.5C 332.149,359.655 328.982,358.489 325.5,358C 328.934,357.442 332.267,356.609 335.5,355.5 Z M 448.5,357.5 C 446.571,357.769 444.905,357.269 443.5,356C 445.391,355.797 447.057,356.297 448.5,357.5 Z M 260.5,356.5 C 256.855,362.145 252.188,366.812 246.5,370.5C 250.145,364.855 254.812,360.188 260.5,356.5 Z M 408.5,358.5 C 415.14,361.95 421.14,366.45 426.5,372C 425.635,375.925 423.469,378.758 420,380.5C 411.552,377.859 403.719,374.026 396.5,369C 401.286,366.38 405.286,362.88 408.5,358.5 Z M 91.5,359.5 C 96.1607,359.902 100.661,360.902 105,362.5C 112.025,375.056 115.858,388.39 116.5,402.5C 101.245,392.34 92.9117,378.007 91.5,359.5 Z M 444.5,360.5 C 459.632,362.821 473.798,367.821 487,375.5C 486.649,389.89 482.649,403.223 475,415.5C 463.361,403.193 451.694,390.86 440,378.5C 441.512,375.791 442.845,372.791 444,369.5C 444.498,366.518 444.665,363.518 444.5,360.5 Z M 108.5,361.5 C 120.719,363.708 133.052,365.041 145.5,365.5C 147.366,370.432 149.033,375.432 150.5,380.5C 145.073,393.384 135.406,400.718 121.5,402.5C 118.565,388.364 114.232,374.697 108.5,361.5 Z M 196.5,361.5 C 196.027,362.906 195.027,363.573 193.5,363.5C 193.973,362.094 194.973,361.427 196.5,361.5 Z M 262.5,361.5 C 260.241,364.938 257.741,368.271 255,371.5C 250.867,374.631 247.034,378.131 243.5,382C 242.056,382.781 240.723,382.614 239.5,381.5C 247.161,374.84 254.828,368.173 262.5,361.5 Z M 295.5,361.5 C 296.117,361.611 296.617,361.944 297,362.5C 297.021,373.399 295.355,384.066 292,394.5C 286.648,401.353 280.481,407.353 273.5,412.5C 273.167,412 272.833,411.5 272.5,411C 273.593,405.72 275.093,400.554 277,395.5C 282.937,383.953 289.104,372.619 295.5,361.5 Z M 432.5,361.5 C 433.334,363.263 432.834,364.93 431,366.5C 430.878,364.718 431.378,363.052 432.5,361.5 Z M 437.5,361.5 C 438.496,361.414 439.329,361.748 440,362.5C 441.503,366.221 441.169,369.888 439,373.5C 436.21,374.782 434.043,373.948 432.5,371C 434.307,367.885 435.973,364.719 437.5,361.5 Z M 193.5,363.5 C 184.994,372.17 175.994,380.337 166.5,388C 165.833,388.667 165.167,388.667 164.5,388C 173.116,378.392 182.783,370.225 193.5,363.5 Z M 290.5,363.5 C 286.61,370.941 282.444,378.274 278,385.5C 274.124,393.794 271.458,402.46 270,411.5C 266.354,415.871 261.854,418.371 256.5,419C 254.078,416.997 253.245,414.497 254,411.5C 261.289,401.876 268.955,392.542 277,383.5C 279.376,375.31 283.876,368.643 290.5,363.5 Z M 542.5,364.5 C 543.428,370.053 543.095,375.719 541.5,381.5C 539.649,390.904 537.482,400.237 535,409.5C 534.465,407.729 533.631,407.396 532.5,408.5C 530.178,414.477 527.345,420.143 524,425.5C 523.91,431.943 520.91,436.61 515,439.5C 513.473,437.779 512.473,435.779 512,433.5C 510.294,424.008 507.96,414.674 505,405.5C 504.198,397.057 504.865,388.724 507,380.5C 507.5,380 508,379.5 508.5,379C 521.788,378.307 533.121,373.474 542.5,364.5 Z M 299.5,379.5 C 300.138,374.81 300.971,370.144 302,365.5C 302.734,370.542 301.9,375.208 299.5,379.5 Z M 355.5,365.5 C 358.614,366.091 361.114,367.758 363,370.5C 365.293,374.252 367.46,378.086 369.5,382C 361.855,379.177 357.188,373.677 355.5,365.5 Z M 366.5,368.5 C 376.105,375.104 384.439,383.104 391.5,392.5C 383.991,393.604 378.157,390.937 374,384.5C 371.215,379.265 368.715,373.932 366.5,368.5 Z M 377.5,369.5 C 377.56,368.957 377.893,368.624 378.5,368.5C 381.45,369.488 384.45,370.321 387.5,371C 392.698,376.533 398.198,381.7 404,386.5C 404.667,387.167 404.667,387.833 404,388.5C 401.904,390.266 399.571,391.599 397,392.5C 392.104,383.44 385.604,375.774 377.5,369.5 Z M 319.5,369.5 C 321.328,372.135 322.495,375.135 323,378.5C 324.74,396.919 327.906,415.086 332.5,433C 331.284,438.266 329.117,443.099 326,447.5C 322.614,435.42 320.614,423.087 320,410.5C 318.526,396.809 318.359,383.143 319.5,369.5 Z M 394.5,371.5 C 394.56,370.957 394.893,370.624 395.5,370.5C 402.441,376.806 410.441,381.306 419.5,384C 417.662,386.303 415.328,386.969 412.5,386C 405.709,382.031 399.709,377.198 394.5,371.5 Z M 225.5,372.5 C 227.6,375.104 229.933,377.604 232.5,380C 222.417,392.59 209.751,401.423 194.5,406.5C 204.833,395.167 215.167,383.833 225.5,372.5 Z M 428.5,373.5 C 435.075,378 434.075,380.166 425.5,380C 426.406,377.779 427.406,375.612 428.5,373.5 Z M 277.5,374.5 C 276.228,380.376 273.395,385.376 269,389.5C 267.017,388.234 266.017,386.568 266,384.5C 269.41,380.584 273.243,377.251 277.5,374.5 Z M 491.5,376.5 C 495.481,377.021 499.481,377.354 503.5,377.5C 503.834,383.994 503.001,390.327 501,396.5C 497.274,391.772 493.941,386.772 491,381.5C 490.616,379.803 490.782,378.137 491.5,376.5 Z M 359.5,379.5 C 364.466,382.799 368.799,386.799 372.5,391.5C 371.093,395.311 368.926,398.645 366,401.5C 363.521,394.25 361.355,386.917 359.5,379.5 Z M 338.5,381.5 C 339.837,382.315 340.837,383.482 341.5,385C 339.066,385.333 338.066,384.166 338.5,381.5 Z M 432.5,381.5 C 434.655,381.372 436.655,381.872 438.5,383C 451.595,394.532 460.928,408.532 466.5,425C 459.685,434.092 451.018,436.759 440.5,433C 432.477,425.976 424.811,418.643 417.5,411C 420.446,408.187 423.779,405.854 427.5,404C 429.988,401.373 430.155,398.54 428,395.5C 425.257,393.212 422.423,391.045 419.5,389C 423.308,385.434 427.641,382.934 432.5,381.5 Z M 226.5,392.5 C 229.499,388.668 232.999,385.335 237,382.5C 237.5,383 238,383.5 238.5,384C 234.968,387.59 230.968,390.423 226.5,392.5 Z M 253.5,384.5 C 254.239,384.369 254.906,384.536 255.5,385C 251.895,389.645 247.562,392.978 242.5,395C 246.062,391.268 249.729,387.768 253.5,384.5 Z M 308.5,385.5 C 308.525,398.733 305.359,411.4 299,423.5C 296.688,426.979 293.854,429.979 290.5,432.5C 290.167,432 289.833,431.5 289.5,431C 291.965,427.791 292.632,424.291 291.5,420.5C 296.906,408.689 302.572,397.022 308.5,385.5 Z M 152.5,386.5 C 153.657,389.857 152.324,391.357 148.5,391C 150.041,389.629 151.375,388.129 152.5,386.5 Z M 262.5,386.5 C 265.601,388.645 266.101,391.312 264,394.5C 260.201,399.301 256.034,403.801 251.5,408C 250.833,408.667 250.167,408.667 249.5,408C 247.339,405.851 246.172,403.351 246,400.5C 251.398,395.593 256.898,390.927 262.5,386.5 Z M 489.5,386.5 C 493.753,390.816 497.42,395.649 500.5,401C 498.539,404.421 496.706,407.921 495,411.5C 492.128,414.037 489.628,416.87 487.5,420C 488.908,420.315 490.241,419.982 491.5,419C 495.846,415.133 499.346,410.633 502,405.5C 505.66,417.647 509.16,429.814 512.5,442C 506.725,443.102 501.392,442.102 496.5,439C 489.237,432.576 482.904,425.409 477.5,417.5C 482.687,407.603 486.687,397.27 489.5,386.5 Z M 409.5,390.5 C 410.306,391.997 410.972,393.664 411.5,395.5C 410.537,398.283 409.37,400.95 408,403.5C 405.5,401 403,398.5 400.5,396C 403.298,393.696 406.298,391.862 409.5,390.5 Z M 237.5,391.5 C 228.37,399.992 218.536,407.659 208,414.5C 205.73,412.195 205.564,410.029 207.5,408C 217.683,402.744 227.683,397.244 237.5,391.5 Z M 343.5,392.5 C 357.768,400.471 361.268,411.804 354,426.5C 350.797,415.058 347.297,403.725 343.5,392.5 Z M 416.5,392.5 C 421.234,393.04 424.9,395.373 427.5,399.5C 424.913,402.756 421.58,404.756 417.5,405.5C 417.073,401.176 416.739,396.842 416.5,392.5 Z M 153.5,393.5 C 154.552,393.351 155.552,393.517 156.5,394C 162.473,401.483 169.473,407.817 177.5,413C 162.955,416.637 148.288,419.637 133.5,422C 135.303,415.228 137.803,408.728 141,402.5C 145.322,399.601 149.489,396.601 153.5,393.5 Z M 377.5,393.5 C 382.719,395.306 388.053,396.806 393.5,398C 397.748,400.243 401.414,403.243 404.5,407C 399.623,411.546 394.456,415.713 389,419.5C 384.101,411.301 380.267,402.634 377.5,393.5 Z M 204.5,423.5 C 205.203,421.284 206.536,419.451 208.5,418C 217.993,411.087 227.659,404.42 237.5,398C 238.5,397.333 239.5,397.333 240.5,398C 228.295,406.264 216.295,414.764 204.5,423.5 Z M 341.5,397.5 C 346.054,408.363 349.387,419.696 351.5,431.5C 351.088,437.701 349.588,438.035 347,432.5C 344.083,420.999 342.25,409.333 341.5,397.5 Z M 374.5,397.5 C 378.128,403.849 381.294,410.516 384,417.5C 384.781,418.944 384.614,420.277 383.5,421.5C 377.833,417.833 373.167,413.167 369.5,407.5C 372.773,404.953 374.44,401.62 374.5,397.5 Z M 413.5,399.5 C 414.85,402.952 415.35,406.619 415,410.5C 413.167,408.667 411.333,406.833 409.5,405C 410.965,403.226 412.298,401.392 413.5,399.5 Z M 241.5,402.5 C 242.933,403.833 244.267,405.333 245.5,407C 237.326,405.003 233.826,408.17 235,416.5C 238.026,419.864 241.526,420.364 245.5,418C 246.685,416.647 248.019,415.48 249.5,414.5C 251.358,416.524 253.025,418.691 254.5,421C 252.865,421.54 251.532,421.04 250.5,419.5C 240.538,427.326 229.205,430.492 216.5,429C 213.99,428.624 211.657,427.79 209.5,426.5C 210.313,425.186 211.313,424.019 212.5,423C 222.233,416.145 231.9,409.311 241.5,402.5 Z M 315.5,403.5 C 317.336,419.857 319.836,436.191 323,452.5C 320.081,458.677 316.414,464.344 312,469.5C 313.772,451.564 314.772,433.564 315,415.5C 312.13,434.057 309.796,452.723 308,471.5C 304.062,477.606 299.229,482.94 293.5,487.5C 288.771,483.102 284.771,478.102 281.5,472.5C 290.024,463.476 297.191,453.476 303,442.5C 306.049,433.401 309.382,424.401 313,415.5C 314.154,411.553 314.987,407.553 315.5,403.5 Z M 405.5,409.5 C 410.842,411.008 413.842,414.508 414.5,420C 413.495,428.69 409.995,436.19 404,442.5C 399.377,436.087 394.877,429.587 390.5,423C 395.695,418.634 400.695,414.134 405.5,409.5 Z M 291.5,411.5 C 289.868,418.664 287.701,425.664 285,432.5C 282.376,437.561 278.21,439.561 272.5,438.5C 267.357,438.505 262.357,437.671 257.5,436C 259.792,434.71 261.792,433.043 263.5,431C 266.833,430 270.167,429 273.5,428C 277.735,420.599 283.735,415.099 291.5,411.5 Z M 465.5,412.5 C 468.334,414.502 470.667,417.002 472.5,420C 471.646,421.022 470.646,421.855 469.5,422.5C 467.582,419.416 466.249,416.082 465.5,412.5 Z M 363.5,414.5 C 375.164,425.33 386.997,435.996 399,446.5C 396.143,452.024 391.81,456.357 386,459.5C 376.375,445.582 368.875,430.582 363.5,414.5 Z M 417.5,420.5 C 424.917,425.316 431.75,430.982 438,437.5C 441.859,450.084 447.025,450.584 453.5,439C 458.269,436.282 463.269,434.115 468.5,432.5C 469.196,438.987 469.863,445.487 470.5,452C 470.217,459.017 469.051,465.85 467,472.5C 451.847,476.071 437.68,473.571 424.5,465C 418.644,458.778 413.144,452.278 408,445.5C 407.333,444.5 407.333,443.5 408,442.5C 413.008,435.982 416.174,428.649 417.5,420.5 Z M 515.5,445.5 C 499.3,474.531 476.133,496.197 446,510.5C 444.833,508.667 443.667,506.833 442.5,505C 449.636,498.865 456.469,492.365 463,485.5C 470.432,475.614 473.932,464.447 473.5,452C 473.37,444.218 472.37,436.551 470.5,429C 471.985,426.844 473.485,424.677 475,422.5C 481.538,430.706 489.038,437.872 497.5,444C 503.407,445.361 509.407,445.861 515.5,445.5 Z M 256.5,423.5 C 257.552,423.351 258.552,423.517 259.5,424C 252.996,432.502 244.662,435.168 234.5,432C 241.568,428.259 248.901,425.426 256.5,423.5 Z M 368.5,457.5 C 361.927,452.898 356.594,447.064 352.5,440C 355.266,434.526 357.933,429.026 360.5,423.5C 363.48,434.755 366.147,446.089 368.5,457.5 Z M 390.5,429.5 C 388.243,428.438 387.077,426.772 387,424.5C 388.802,425.789 389.969,427.456 390.5,429.5 Z M 124.5,425.5 C 126.527,425.338 128.527,425.505 130.5,426C 128.689,428.978 126.356,431.478 123.5,433.5C 122.267,430.658 122.6,427.992 124.5,425.5 Z M 205.5,428.5 C 218.122,432.792 231.122,435.625 244.5,437C 248.325,438.768 248.325,440.768 244.5,443C 236.587,448.542 228.42,453.708 220,458.5C 213.999,451.173 208.999,443.173 205,434.5C 204.322,432.402 204.489,430.402 205.5,428.5 Z M 365.5,430.5 C 370.892,439.61 376.059,448.944 381,458.5C 381.781,459.944 381.614,461.277 380.5,462.5C 376.138,460.305 372.972,456.972 371,452.5C 368.85,445.232 367.016,437.899 365.5,430.5 Z M 286.5,447.5 C 286.302,445.425 286.135,443.425 286,441.5C 289.522,438.734 292.855,435.734 296,432.5C 293.937,438.091 290.771,443.091 286.5,447.5 Z M 200.5,434.5 C 205.911,443.095 211.578,451.595 217.5,460C 210.903,465.091 203.903,469.591 196.5,473.5C 195.643,472.264 194.977,470.931 194.5,469.5C 195.57,457.673 197.57,446.007 200.5,434.5 Z M 190.5,439.5 C 184.245,448.935 177.745,458.269 171,467.5C 168.719,470.903 165.886,473.737 162.5,476C 158.961,477.504 155.295,477.837 151.5,477C 147.131,474.143 143.131,470.81 139.5,467C 145.874,467.212 151.874,465.879 157.5,463C 168.657,455.336 179.657,447.502 190.5,439.5 Z M 252.5,439.5 C 261.909,439.95 271.242,440.95 280.5,442.5C 279.843,447.965 278.01,453.299 275,458.5C 273.883,460.124 272.383,461.124 270.5,461.5C 261.872,460.033 255.705,455.367 252,447.5C 251.398,444.779 251.565,442.113 252.5,439.5 Z M 334.5,440.5 C 335.117,440.611 335.617,440.944 336,441.5C 337.834,447.506 339.668,453.506 341.5,459.5C 340.689,460.216 340.022,461.05 339.5,462C 338.917,466.337 337.75,470.504 336,474.5C 332.911,468.235 330.411,461.735 328.5,455C 329.825,449.855 331.825,445.022 334.5,440.5 Z M 348.5,444.5 C 353.79,451.539 359.457,458.373 365.5,465C 364.5,465.5 363.5,466 362.5,466.5C 358.273,464.714 357.273,465.381 359.5,468.5C 358.185,470.316 356.685,471.983 355,473.5C 353.044,468.684 351.544,463.684 350.5,458.5C 351.397,458.331 352.397,457.998 353.5,457.5C 350.852,453.557 349.185,449.224 348.5,444.5 Z M 239.5,479.5 C 234.475,472.965 228.808,466.798 222.5,461C 229.745,455.793 237.245,450.959 245,446.5C 244.209,453.111 243.376,459.778 242.5,466.5C 243.442,470.476 243.609,474.476 243,478.5C 241.989,479.337 240.822,479.67 239.5,479.5 Z M 285.5,448.5 C 285.573,450.027 284.906,451.027 283.5,451.5C 283.427,449.973 284.094,448.973 285.5,448.5 Z M 248.5,449.5 C 252.627,456.617 258.627,461.617 266.5,464.5C 261.571,470.596 255.404,474.929 248,477.5C 247.055,477.095 246.388,476.428 246,475.5C 245.336,466.651 246.169,457.984 248.5,449.5 Z M 400.5,450.5 C 407.439,455.605 413.606,461.605 419,468.5C 424.898,477.405 430.398,486.571 435.5,496C 418.111,494.757 402.945,488.257 390,476.5C 388.267,472.674 387.101,468.674 386.5,464.5C 391.467,460.2 396.134,455.533 400.5,450.5 Z M 293.5,452.5 C 293.573,454.027 292.906,455.027 291.5,455.5C 291.427,453.973 292.094,452.973 293.5,452.5 Z M 290.5,456.5 C 290.573,458.027 289.906,459.027 288.5,459.5C 288.427,457.973 289.094,456.973 290.5,456.5 Z M 287.5,460.5 C 287.573,462.027 286.906,463.027 285.5,463.5C 285.427,461.973 286.094,460.973 287.5,460.5 Z M 326.5,461.5 C 330.361,467.25 332.528,473.583 333,480.5C 329,487.338 323.166,491.671 315.5,493.5C 314.353,493.182 313.519,492.516 313,491.5C 311.672,486.558 311.339,481.558 312,476.5C 317.037,471.631 321.87,466.631 326.5,461.5 Z M 218.5,463.5 C 220.085,464.002 220.585,465.002 220,466.5C 214.772,467.647 214.272,466.647 218.5,463.5 Z M 349.5,493.5 C 345.293,488.781 341.627,483.614 338.5,478C 339.794,473.199 340.96,468.366 342,463.5C 345.131,473.356 347.631,483.356 349.5,493.5 Z M 271.5,464.5 C 270.288,467.107 268.288,468.774 265.5,469.5C 266.911,467.086 268.911,465.419 271.5,464.5 Z M 384.5,472.5 C 381.465,471.044 380.131,468.877 380.5,466C 381.635,465.251 382.635,465.417 383.5,466.5C 384.348,468.409 384.682,470.409 384.5,472.5 Z M 239.5,479.5 C 237.438,480.776 235.104,481.61 232.5,482C 221.539,483.486 210.539,483.819 199.5,483C 197.773,481.611 196.439,479.944 195.5,478C 195.645,477.228 195.978,476.561 196.5,476C 201.907,473.548 207.074,470.714 212,467.5C 215.912,472.426 220.245,472.759 225,468.5C 229.594,472.54 234.427,476.206 239.5,479.5 Z M 365.5,467.5 C 366.627,468.122 367.627,468.955 368.5,470C 375.549,469.837 381.215,472.504 385.5,478C 378.448,487.216 369.448,490.716 358.5,488.5C 357.191,485.264 356.191,481.931 355.5,478.5C 358.144,474.191 361.477,470.524 365.5,467.5 Z M 425.5,469.5 C 437.788,475.325 450.788,478.159 464.5,478C 459.53,486.469 452.53,492.636 443.5,496.5C 441.247,495.747 439.413,494.414 438,492.5C 433.3,485.099 429.134,477.432 425.5,469.5 Z M 267.5,472.5 C 268.239,472.369 268.906,472.536 269.5,473C 267.207,484.054 261.207,486.554 251.5,480.5C 257.015,478.008 262.348,475.341 267.5,472.5 Z M 278.5,474.5 C 283.303,480.146 287.969,485.979 292.5,492C 285.593,496.286 278.26,499.786 270.5,502.5C 270.963,492.666 273.629,483.332 278.5,474.5 Z M 386.5,480.5 C 395.228,484.699 403.895,489.199 412.5,494C 420.855,496.504 429.189,498.837 437.5,501C 433.316,505.51 428.316,508.843 422.5,511C 410.993,516.225 398.993,519.725 386.5,521.5C 378.301,521.465 371.801,518.132 367,511.5C 363.191,506.052 361.024,500.219 360.5,494C 367.521,492.66 374.188,490.326 380.5,487C 383.386,485.615 385.386,483.449 386.5,480.5 Z M 335.5,481.5 C 337.892,484.598 340.058,487.931 342,491.5C 351.944,498.979 356.277,508.979 355,521.5C 355.781,526.554 355.614,531.554 354.5,536.5C 354.167,536.833 353.833,537.167 353.5,537.5C 338.836,531.351 326.169,522.518 315.5,511C 321.842,506.33 328.842,502.996 336.5,501C 337.38,499.644 337.714,498.144 337.5,496.5C 335.801,496.34 334.134,496.506 332.5,497C 325.893,501.22 319.06,505.054 312,508.5C 306.968,503.968 302.468,498.968 298.5,493.5C 301.211,489.788 304.544,486.788 308.5,484.5C 309.248,487.497 309.915,490.497 310.5,493.5C 308.833,494.167 307.167,494.833 305.5,495.5C 305.667,495.833 305.833,496.167 306,496.5C 309.073,497.617 312.24,497.784 315.5,497C 323.782,493.881 330.448,488.714 335.5,481.5 Z M 244.5,482.5 C 250.753,485.73 257.42,487.397 264.5,487.5C 262.681,496.096 261.181,504.763 260,513.5C 256.037,516.93 251.37,518.263 246,517.5C 227.999,517.172 213.999,509.505 204,494.5C 202.097,492.559 201.264,490.226 201.5,487.5C 216.384,489.514 230.717,487.847 244.5,482.5 Z M 303.5,483.5 C 302.415,485.587 300.749,486.92 298.5,487.5C 299.585,485.413 301.251,484.08 303.5,483.5 Z M 294.5,495.5 C 300.028,500.188 304.861,505.188 309,510.5C 295.74,518.215 282.24,525.548 268.5,532.5C 265.848,530.408 265.014,527.742 266,524.5C 277.041,516.292 286.541,506.626 294.5,495.5 Z M 286.5,498.5 C 287.525,498.897 287.692,499.563 287,500.5C 280.93,507.24 274.263,513.24 267,518.5C 266.561,514.789 266.894,511.122 268,507.5C 274.088,504.201 280.254,501.201 286.5,498.5 Z M 361.5,519.5 C 367.11,521.969 367.443,524.636 362.5,527.5C 361.52,524.914 361.187,522.247 361.5,519.5 Z"/></g>
<g><path style="opacity:0.591" fill="#000000" d="M 443.5,106.5 C 446.725,106.411 449.725,107.077 452.5,108.5C 462.574,106.71 468.907,110.877 471.5,121C 470.833,121.667 470.167,121.667 469.5,121C 467.046,115.034 462.713,111.534 456.5,110.5C 453.729,110.082 451.729,111.082 450.5,113.5C 451.635,115.799 452.968,117.966 454.5,120C 453.833,120.667 453.167,120.667 452.5,120C 449.631,116.796 446.465,113.963 443,111.5C 442.616,109.803 442.782,108.137 443.5,106.5 Z"/></g>
<g><path style="opacity:0.31" fill="#000000" d="M 196.5,109.5 C 199.354,110.973 201.688,113.14 203.5,116C 199.596,115.688 197.262,113.521 196.5,109.5 Z"/></g>
<g><path style="opacity:0.754" fill="#000000" d="M 483.5,130.5 C 489.262,130.72 490.929,133.554 488.5,139C 480.208,139.89 478.542,137.057 483.5,130.5 Z"/></g>
<g><path style="opacity:0.987" fill="#01050c" d="M 1076.5,134.5 C 1110.5,134.5 1144.5,134.5 1178.5,134.5C 1178.33,219.167 1178.5,303.834 1179,388.5C 1180.75,419.562 1196.91,431.729 1227.5,425C 1237.8,423.093 1247.8,420.259 1257.5,416.5C 1259.17,427.831 1260.83,439.164 1262.5,450.5C 1250.29,455.513 1237.62,459.013 1224.5,461C 1212.12,461.87 1199.79,461.536 1187.5,460C 1168.05,456.553 1154.55,445.719 1147,427.5C 1141.2,410.34 1138.54,392.673 1139,374.5C 1138.5,305.501 1138.33,236.501 1138.5,167.5C 1117.83,167.5 1097.17,167.5 1076.5,167.5C 1076.5,156.5 1076.5,145.5 1076.5,134.5 Z"/></g>
<g><path style="opacity:0.989" fill="#01050c" d="M 2077.5,142.5 C 2107.9,141.753 2120.07,156.42 2114,186.5C 2110.31,196.191 2103.48,202.357 2093.5,205C 2069.86,208.028 2056.86,197.695 2054.5,174C 2054.79,157.906 2062.46,147.406 2077.5,142.5 Z"/></g>
<g><path style="opacity:0.797" fill="#000000" d="M 510.5,160.5 C 519.487,159.665 521.82,163.165 517.5,171C 507.926,171.956 505.593,168.456 510.5,160.5 Z"/></g>
<g><path style="opacity:1" fill="#01050c" d="M 601.5,166.5 C 667.5,166.5 733.5,166.5 799.5,166.5C 799.5,177.5 799.5,188.5 799.5,199.5C 773.167,199.5 746.833,199.5 720.5,199.5C 720.5,285.167 720.5,370.833 720.5,456.5C 707.167,456.5 693.833,456.5 680.5,456.5C 680.5,370.833 680.5,285.167 680.5,199.5C 654.167,199.5 627.833,199.5 601.5,199.5C 601.5,188.5 601.5,177.5 601.5,166.5 Z"/></g>
<g><path style="opacity:0.99" fill="#01050c" d="M 909.5,234.5 C 923.504,234.333 937.504,234.5 951.5,235C 996.331,240.166 1019.16,265.333 1020,310.5C 1020.5,358.166 1020.67,405.832 1020.5,453.5C 1001.57,456.433 982.566,458.933 963.5,461C 948.5,461.667 933.5,461.667 918.5,461C 899.063,459.966 881.396,453.966 865.5,443C 850.418,429.602 843.418,412.769 844.5,392.5C 844.868,364.973 857.535,345.473 882.5,334C 906.383,324.981 931.05,321.981 956.5,325C 964.875,325.952 973.208,327.118 981.5,328.5C 982.2,315.757 980.366,303.424 976,291.5C 969.045,278.566 958.212,271.066 943.5,269C 919.752,266.807 896.418,268.974 873.5,275.5C 872.833,275.167 872.167,274.833 871.5,274.5C 869.387,264.21 867.887,253.877 867,243.5C 871.347,241.607 875.847,240.107 880.5,239C 890.273,237.241 899.939,235.741 909.5,234.5 Z M 925.5,356.5 C 936.838,356.333 948.172,356.5 959.5,357C 966.89,357.611 974.057,359.111 981,361.5C 981.833,382.508 981.666,403.508 980.5,424.5C 966.052,426.74 951.552,428.073 937,428.5C 925.19,428.225 913.69,426.058 902.5,422C 888.004,414.171 882.171,402.004 885,385.5C 888.772,372.395 897.272,363.895 910.5,360C 915.596,358.64 920.596,357.474 925.5,356.5 Z"/></g>
<g><path style="opacity:0.988" fill="#01050c" d="M 1387.5,234.5 C 1452.56,232.051 1490.06,263.051 1500,327.5C 1505.44,365.056 1497.11,399.056 1475,429.5C 1446.9,458.861 1413.06,468.361 1373.5,458C 1339.93,446.099 1318.43,422.932 1309,388.5C 1299.28,351.085 1302.95,315.085 1320,280.5C 1335.69,255.079 1358.19,239.745 1387.5,234.5 Z M 1391.5,269.5 C 1419.75,266.036 1439.92,277.036 1452,302.5C 1463.3,332.503 1463.3,362.503 1452,392.5C 1437.65,421.253 1414.81,431.419 1383.5,423C 1368.61,416.439 1358.11,405.606 1352,390.5C 1342,361.837 1342,333.17 1352,304.5C 1359.47,286.184 1372.64,274.518 1391.5,269.5 Z"/></g>
<g><path style="opacity:0.987" fill="#01050c" d="M 1622.5,234.5 C 1648.4,233.227 1674.07,235.061 1699.5,240C 1704.14,240.74 1708.48,242.24 1712.5,244.5C 1709.91,255.782 1707.58,267.115 1705.5,278.5C 1679.55,269.59 1652.88,266.423 1625.5,269C 1616.43,270.024 1608.09,273.024 1600.5,278C 1593.11,285.802 1591.61,294.635 1596,304.5C 1603.93,312.219 1613.1,318.052 1623.5,322C 1644.98,329.158 1665.98,337.492 1686.5,347C 1697.12,352.609 1706.29,360.109 1714,369.5C 1724.14,386.322 1725.81,403.989 1719,422.5C 1712.22,438.144 1700.72,448.644 1684.5,454C 1673.46,457.741 1662.13,460.074 1650.5,461C 1616.15,464.728 1582.99,460.228 1551,447.5C 1550.5,447.167 1550,446.833 1549.5,446.5C 1552.19,435.22 1554.69,423.887 1557,412.5C 1557.56,411.978 1558.23,411.645 1559,411.5C 1587.87,425.077 1618.03,430.244 1649.5,427C 1658.41,426.139 1666.75,423.473 1674.5,419C 1686.62,406.777 1686.29,394.777 1673.5,383C 1666.49,378.492 1659.15,374.492 1651.5,371C 1630.75,364.398 1610.42,356.731 1590.5,348C 1576.44,341.274 1565.61,331.107 1558,317.5C 1548.08,282.852 1559.24,257.685 1591.5,242C 1601.7,238.365 1612.04,235.865 1622.5,234.5 Z"/></g>
<g><path style="opacity:0.987" fill="#01050c" d="M 1856.5,234.5 C 1882.4,233.227 1908.07,235.061 1933.5,240C 1938.14,240.74 1942.48,242.24 1946.5,244.5C 1943.91,255.782 1941.58,267.115 1939.5,278.5C 1913.55,269.59 1886.88,266.423 1859.5,269C 1850.43,270.024 1842.09,273.024 1834.5,278C 1827.11,285.802 1825.61,294.635 1830,304.5C 1837.93,312.219 1847.1,318.052 1857.5,322C 1878.98,329.158 1899.98,337.492 1920.5,347C 1931.12,352.609 1940.29,360.109 1948,369.5C 1958.14,386.322 1959.81,403.989 1953,422.5C 1946.22,438.144 1934.72,448.644 1918.5,454C 1907.46,457.741 1896.13,460.074 1884.5,461C 1850.15,464.728 1816.99,460.228 1785,447.5C 1784.5,447.167 1784,446.833 1783.5,446.5C 1786.19,435.22 1788.69,423.887 1791,412.5C 1791.56,411.978 1792.23,411.645 1793,411.5C 1821.87,425.077 1852.03,430.244 1883.5,427C 1892.41,426.139 1900.75,423.473 1908.5,419C 1920.62,406.777 1920.29,394.777 1907.5,383C 1900.49,378.492 1893.15,374.492 1885.5,371C 1864.75,364.398 1844.42,356.731 1824.5,348C 1810.44,341.274 1799.61,331.107 1792,317.5C 1782.08,282.852 1793.24,257.685 1825.5,242C 1835.7,238.365 1846.04,235.865 1856.5,234.5 Z"/></g>
<g><path style="opacity:0.99" fill="#01050c" d="M 2313.5,234.5 C 2327.5,234.333 2341.5,234.5 2355.5,235C 2400.33,240.166 2423.16,265.333 2424,310.5C 2424.5,358.166 2424.67,405.832 2424.5,453.5C 2405.57,456.433 2386.57,458.933 2367.5,461C 2352.5,461.667 2337.5,461.667 2322.5,461C 2303.06,459.966 2285.4,453.966 2269.5,443C 2254.42,429.602 2247.42,412.769 2248.5,392.5C 2248.87,364.973 2261.54,345.473 2286.5,334C 2310.38,324.981 2335.05,321.981 2360.5,325C 2368.87,325.952 2377.21,327.118 2385.5,328.5C 2386.2,315.757 2384.37,303.424 2380,291.5C 2373.05,278.566 2362.21,271.066 2347.5,269C 2323.75,266.807 2300.42,268.974 2277.5,275.5C 2276.83,275.167 2276.17,274.833 2275.5,274.5C 2273.39,264.21 2271.89,253.877 2271,243.5C 2275.35,241.607 2279.85,240.107 2284.5,239C 2294.27,237.241 2303.94,235.741 2313.5,234.5 Z M 2329.5,356.5 C 2340.84,356.333 2352.17,356.5 2363.5,357C 2370.89,357.611 2378.06,359.111 2385,361.5C 2385.83,382.508 2385.67,403.508 2384.5,424.5C 2370.05,426.74 2355.55,428.073 2341,428.5C 2329.19,428.225 2317.69,426.058 2306.5,422C 2292,414.171 2286.17,402.004 2289,385.5C 2292.77,372.395 2301.27,363.895 2314.5,360C 2319.6,358.64 2324.6,357.474 2329.5,356.5 Z"/></g>
<g><path style="opacity:0.982" fill="#01050d" d="M 2547.5,234.5 C 2560.84,234.333 2574.17,234.5 2587.5,235C 2630.01,240.51 2653.17,264.676 2657,307.5C 2658.43,357.15 2658.93,406.816 2658.5,456.5C 2645.17,456.5 2631.83,456.5 2618.5,456.5C 2618.67,410.499 2618.5,364.499 2618,318.5C 2616.23,284.726 2598.57,268.393 2565,269.5C 2552.78,269.277 2540.78,270.611 2529,273.5C 2528.5,334.499 2528.33,395.499 2528.5,456.5C 2515.17,456.5 2501.83,456.5 2488.5,456.5C 2488.5,385.833 2488.5,315.167 2488.5,244.5C 2508.13,240.173 2527.8,236.84 2547.5,234.5 Z"/></g>
<g><path style="opacity:0.987" fill="#01050c" d="M 2012.5,239.5 C 2046.5,239.5 2080.5,239.5 2114.5,239.5C 2114.33,288.834 2114.5,338.168 2115,387.5C 2116.77,418.24 2132.93,430.74 2163.5,425C 2173.8,423.093 2183.8,420.26 2193.5,416.5C 2195.17,427.831 2196.83,439.164 2198.5,450.5C 2176.47,460.059 2153.47,463.559 2129.5,461C 2105.23,458.292 2089.07,445.459 2081,422.5C 2078.36,413.679 2076.7,404.679 2076,395.5C 2074.64,354.18 2074.14,312.847 2074.5,271.5C 2053.83,271.5 2033.17,271.5 2012.5,271.5C 2012.5,260.833 2012.5,250.167 2012.5,239.5 Z"/></g>
<g><path style="opacity:0.375" fill="#000000" d="M 398.5,280.5 C 403.448,280.621 403.448,281.621 398.5,283.5C 397.833,283.333 397.167,283.167 396.5,283C 397.381,282.292 398.047,281.458 398.5,280.5 Z"/></g>
<g><path style="opacity:0.367" fill="#000000" d="M 205.5,305.5 C 206.946,304.387 208.613,304.22 210.5,305C 209.584,305.374 208.75,305.874 208,306.5C 207.329,305.748 206.496,305.414 205.5,305.5 Z"/></g>
<g><path style="opacity:0.401" fill="#000000" d="M 200.5,305.5 C 201.873,305.343 203.207,305.51 204.5,306C 201.562,308.425 198.228,309.425 194.5,309C 196.432,307.541 198.432,306.375 200.5,305.5 Z"/></g>
<g><path style="opacity:0.388" fill="#000000" d="M 189.5,309.5 C 190.873,309.343 192.207,309.51 193.5,310C 189.32,312.84 184.82,315.007 180,316.5C 179.312,315.668 179.479,315.002 180.5,314.5C 183.724,313.059 186.724,311.392 189.5,309.5 Z"/></g>
<g><path style="opacity:0.257" fill="#000000" d="M 550.5,385.5 C 551.693,385.97 552.36,386.97 552.5,388.5C 552.167,389.5 551.833,390.5 551.5,391.5C 550.534,389.604 550.201,387.604 550.5,385.5 Z"/></g>
<g><path style="opacity:0.403" fill="#000000" d="M 542.5,403.5 C 543.586,403.62 544.253,404.287 544.5,405.5C 544.03,407.774 543.03,409.774 541.5,411.5C 541.167,411.167 540.833,410.833 540.5,410.5C 541.577,408.271 542.244,405.937 542.5,403.5 Z"/></g>
<g><path style="opacity:0.443" fill="#000000" d="M 496.5,462.5 C 497.525,462.897 497.692,463.563 497,464.5C 492.18,469.711 486.347,472.044 479.5,471.5C 485.663,469.254 491.33,466.254 496.5,462.5 Z"/></g>
<g><path style="opacity:0.631" fill="#000000" d="M 473.5,470.5 C 474.833,470.5 476.167,470.5 477.5,470.5C 478.085,473.261 477.085,474.927 474.5,475.5C 470.872,474.564 470.539,472.898 473.5,470.5 Z"/></g>
<g><path style="opacity:0.704" fill="#000000" d="M 244.5,492.5 C 246.5,492.5 248.5,492.5 250.5,492.5C 250.5,493.833 250.5,495.167 250.5,496.5C 246.759,497.401 244.759,496.068 244.5,492.5 Z"/></g>
<g><path style="opacity:0.531" fill="#000000" d="M 183.5,517.5 C 183.56,516.957 183.893,516.624 184.5,516.5C 194.339,522.254 204.339,527.754 214.5,533C 226.009,537.461 237.675,541.461 249.5,545C 225.008,541.781 203.008,532.615 183.5,517.5 Z"/></g>
<g><path style="opacity:0.547" fill="#000000" d="M 437.5,516.5 C 439.549,516.706 439.883,517.539 438.5,519C 419.134,529.57 398.468,534.57 376.5,534C 398.067,532.029 418.4,526.196 437.5,516.5 Z"/></g>
</svg>
